<?xml version="1.0" encoding="utf-8"?>
<!-- Generator: Adobe Illustrator 27.9.0, SVG Export Plug-In . SVG Version: 6.00 Build 0)  -->
<svg version="1.1" id="Capa_1" xmlns="http://www.w3.org/2000/svg" xmlns:xlink="http://www.w3.org/1999/xlink" x="0px" y="0px"
	 viewBox="0 0 101 96" style="enable-background:new 0 0 101 96;" xml:space="preserve">
<style type="text/css">
	.st0{display:none;fill:#FFFFFF;}
	.st1{display:none;fill:#999999;}
	.st2{display:none;fill:#666666;}
	.st3{display:none;fill:#C1C1C1;}
	.st4{display:none;fill:#8E8E8E;}
	.st5{fill:#18A2B8;}
	.st6{display:none;fill:#7A7A7A;}
	.st7{display:none;fill:#CCCCCC;}
	.st8{display:none;fill:#ADADAD;}
	.st9{display:none;fill:#333333;}
	.st10{display:none;fill:#D4D4D4;}
	.st11{display:none;fill:#B2B2B2;}
	.st12{display:none;fill:#888888;}
	.st13{display:none;fill:#444444;}
	.st14{display:none;fill:#707070;}
	.st15{display:none;fill:#A3A3A3;}
	.st16{display:none;fill:#3D3D3D;}
	.st17{display:none;fill:#B7B7B7;}
	.st18{display:none;fill:#5B5B5B;}
	.st19{display:none;fill:#1E1E1E;}
	.st20{display:none;fill:#515151;}
	.st21{display:none;fill:#5D5D5D;}
	.st22{display:none;fill:#848484;}
	.st23{display:none;fill:#909090;}
	.st24{display:none;fill:#4C4C4C;}
	.st25{display:none;fill:#7F7F7F;}
	.st26{display:none;fill:#555555;}
	.st27{display:none;fill:#BBBBBB;}
	.st28{display:none;fill:#AAAAAA;}
	.st29{display:none;fill:#777777;}
	.st30{display:none;fill:#C3C3C3;}
	.st31{display:none;fill:#474747;}
	.st32{display:none;fill:#3B3B3B;}
	.st33{display:none;fill:#6E6E6E;}
	.st34{display:none;fill:#313131;}
	.st35{display:none;fill:#A1A1A1;}
	.st36{display:none;fill:#5C5C5C;}
</style>
<path class="st0" d="M0,0v41c1.9-1.7,3.7-3.7,6-4.8c3.7-1.7,7.2,0.2,9.8,2.9c3.4,3.6,6,9.9,4.5,14.9c-2.1,7.3-9,10.9-15,5.5
	c-2-1.8-3.2-4.1-4.3-6.5c-1.8,4.2-1,9.5-1,14v29h101V0H0z"/>
<path class="st1" d="M29.7,5.3c-0.4,0.4,0.6,0.4,0.7,0.3C30.8,5.2,29.7,5.3,29.7,5.3z"/>
<path class="st2" d="M31.7,5.3c-0.4,0.4,0.6,0.4,0.7,0.3C32.8,5.2,31.7,5.3,31.7,5.3z"/>
<path class="st1" d="M33,5l1,1L33,5z"/>
<path class="st3" d="M65,5l1,1L65,5z"/>
<path class="st2" d="M66,5c1.2,0.7,1.5,0.7,3,1C67.8,5.3,67.5,5.3,66,5z"/>
<path class="st1" d="M69,5l1,1L69,5z"/>
<path class="st4" d="M27,6l1,1L27,6z"/>
<path class="st5" d="M28,6.7C17.5,11,18.5,28.6,24.4,36c3.1,3.9,8.5,6.9,13.5,4.9C53.4,34.7,45.3-0.2,28,6.7z"/>
<path class="st4" d="M36,6l1,1L36,6z"/>
<path class="st6" d="M63,6l1,1L63,6z"/>
<path class="st5" d="M64,6.7c-9.4,3.6-11.7,16.6-9.2,25.3c1.8,6.3,7.4,11.3,14.2,8.8c9.5-3.5,12.1-16.1,9.7-24.8
	C77,9.4,71.2,4,64,6.7z"/>
<path class="st4" d="M72,6l1,1L72,6z"/>
<path class="st7" d="M25,7l1,1L25,7 M38,7l1,1L38,7z"/>
<path class="st8" d="M61,7l1,1L61,7z"/>
<path class="st9" d="M73,7l1,1L73,7z"/>
<path class="st7" d="M24,8l1,1L24,8z"/>
<path class="st1" d="M39,8l1,1L39,8z"/>
<path class="st2" d="M60,8l1,1L60,8z"/>
<path class="st10" d="M75,8l1,1L75,8z"/>
<path class="st1" d="M40,9l1,1L40,9z"/>
<path class="st2" d="M59,9l1,1L59,9z"/>
<path class="st9" d="M75,9l1,1L75,9 M23,10l1,1L23,10z"/>
<path class="st11" d="M41,10l1,1L41,10z"/>
<path class="st12" d="M58,10l1,1L58,10z"/>
<path class="st2" d="M76,10l1,1L76,10z"/>
<path class="st4" d="M22,11l1,1L22,11z"/>
<path class="st7" d="M57,11l1,1L57,11z"/>
<path class="st3" d="M77,11l1,1L77,11z"/>
<path class="st13" d="M42,12l1,1L42,12z"/>
<path class="st14" d="M21,13l1,1L21,13z"/>
<path class="st15" d="M43,13l1,1L43,13z"/>
<path class="st14" d="M56,13l1,1L56,13z"/>
<path class="st15" d="M78,13l1,1L78,13z"/>
<path class="st16" d="M78,14l1,1L78,14z"/>
<path class="st17" d="M20,15l1,1L20,15z"/>
<path class="st15" d="M44,15l1,1L44,15z"/>
<path class="st14" d="M55,15l1,1L55,15 M20,16l1,1L20,16z"/>
<path class="st16" d="M44,16l1,1L44,16z"/>
<path class="st15" d="M79,16l1,1L79,16z"/>
<path class="st16" d="M20,17l1,1L20,17z"/>
<path class="st8" d="M54,17l1,1L54,17z"/>
<path class="st14" d="M79,17l1,1L79,17z"/>
<path class="st4" d="M45,18l1,1L45,18z"/>
<path class="st18" d="M54,18l1,1L54,18z"/>
<path class="st19" d="M79.3,18.7c-0.1,0.1-0.1,1.1,0.3,0.7C79.7,19.3,79.8,18.2,79.3,18.7z"/>
<path class="st20" d="M45,19l1,1L45,19z"/>
<path class="st7" d="M19,20v5C19.8,23,19.8,22,19,20z"/>
<path class="st1" d="M53.3,21.7c-0.1,0.1-0.1,1.1,0.3,0.7C53.7,22.3,53.8,21.2,53.3,21.7 M46,22v6C47,25.7,47,24.3,46,22z"/>
<path class="st2" d="M53,23v5C53.8,26,53.8,25,53,23z"/>
<path class="st21" d="M79.3,25.7c-0.1,0.1-0.1,1.1,0.3,0.7C79.7,26.3,79.8,25.2,79.3,25.7z"/>
<path class="st18" d="M20,27l1,1L20,27z"/>
<path class="st4" d="M79,27l1,1L79,27z"/>
<path class="st15" d="M20,28l1,1L20,28z"/>
<path class="st7" d="M46,28l1,1L46,28z"/>
<path class="st3" d="M53.3,28.7c-0.1,0.1-0.1,1.1,0.3,0.7C53.7,29.3,53.8,28.2,53.3,28.7z"/>
<path class="st16" d="M21,30l1,1L21,30z"/>
<path class="st2" d="M78,30l1,1L78,30z"/>
<path class="st15" d="M21,31l1,1L21,31z"/>
<path class="st14" d="M45,31l1,1L45,31z"/>
<path class="st16" d="M54,31l1,1L54,31z"/>
<path class="st17" d="M45,32l1,1L45,32z"/>
<path class="st22" d="M54,32l1,1L54,32z"/>
<path class="st16" d="M77,32l1,1L77,32z"/>
<path class="st4" d="M22,33l1,1L22,33z"/>
<path class="st3" d="M77,33l1,1L77,33z"/>
<path class="st4" d="M44,34l1,1L44,34z"/>
<path class="st18" d="M55,34l1,1L55,34z"/>
<path class="st20" d="M76,34l1,1L76,34z"/>
<path class="st6" d="M6,35l1,1L6,35z"/>
<path class="st9" d="M7,35c1.2,0.7,1.5,0.7,3,1C8.8,35.3,8.5,35.3,7,35z"/>
<path class="st14" d="M10,35l1,1L10,35z"/>
<path class="st17" d="M11,35l1,1L11,35z"/>
<path class="st3" d="M23,35l1,1L23,35z"/>
<path class="st8" d="M88,35l1,1L88,35z"/>
<path class="st9" d="M89,35c1.5,0.7,2.3,0.8,4,1C91.5,35.3,90.7,35.2,89,35z"/>
<path class="st22" d="M93,35l1,1L93,35z"/>
<path class="st2" d="M4,36l1,1L4,36z"/>
<path class="st5" d="M5.1,37c-11.3,6.1-1.7,31.2,10.7,23.8C26,54.8,17.4,30.4,5.1,37z"/>
<path class="st8" d="M13,36l1,1L13,36z"/>
<path class="st6" d="M24,36l1,1L24,36z"/>
<path class="st1" d="M43,36l1,1L43,36z"/>
<path class="st2" d="M56,36l1,1L56,36z"/>
<path class="st23" d="M75,36l1,1L75,36z"/>
<path class="st4" d="M86,36l1,1L86,36z"/>
<path class="st5" d="M87.1,36.9c-10.8,4.7-9.3,30.3,4.9,24.3c6.1-2.6,8.9-11,7.5-17.1C98.1,38.2,93,34.3,87.1,36.9z"/>
<path class="st22" d="M95,36l1,1L95,36z"/>
<path class="st9" d="M3,37l1,1L3,37z"/>
<path class="st2" d="M14,37l1,1L14,37z"/>
<path class="st24" d="M25,37l1,1L25,37z"/>
<path class="st20" d="M42,37l1,1L42,37 M74,37l1,1L74,37z"/>
<path class="st16" d="M85,37l1,1L85,37z"/>
<path class="st18" d="M96,37l1,1L96,37z"/>
<path class="st16" d="M2,38l1,1L2,38 M15,38l1,1L15,38z"/>
<path class="st9" d="M26,38l1,1L26,38 M41,38l1,1L41,38z"/>
<path class="st20" d="M73,38l1,1L73,38z"/>
<path class="st14" d="M97,38l1,1L97,38z"/>
<path class="st4" d="M1,39l1,1L1,39z"/>
<path class="st25" d="M16,39l1,1L16,39z"/>
<path class="st20" d="M27,39l1,1L27,39z"/>
<path class="st7" d="M58,39l1,1L58,39z"/>
<path class="st14" d="M72,39l1,1L72,39z"/>
<path class="st26" d="M83,39l1,1L83,39z"/>
<path class="st3" d="M98,39l1,1L98,39z"/>
<path class="st27" d="M17,40l1,1L17,40z"/>
<path class="st28" d="M28,40l1,1L28,40z"/>
<path class="st9" d="M29,40l1,1L29,40z"/>
<path class="st29" d="M39,40l1,1L39,40z"/>
<path class="st21" d="M60,40l1,1L60,40z"/>
<path class="st24" d="M70,40l1,1L70,40z"/>
<path class="st30" d="M71,40l1,1L71,40z"/>
<path class="st12" d="M82,40l1,1L82,40z"/>
<path class="st9" d="M98,40l1,1L98,40z"/>
<path class="st1" d="M0,41l1,1L0,41z"/>
<path class="st7" d="M30,41l1,1L30,41z"/>
<path class="st6" d="M31,41l1,1L31,41z"/>
<path class="st9" d="M32,41l1,1L32,41z"/>
<path class="st20" d="M36,41l1,1L36,41z"/>
<path class="st1" d="M37,41l1,1L37,41z"/>
<path class="st22" d="M62,41l1,1L62,41z"/>
<path class="st31" d="M63,41l1,1L63,41 M67,41l1,1L67,41z"/>
<path class="st22" d="M68,41l1,1L68,41z"/>
<path class="st17" d="M99,41l1,1L99,41z"/>
<path class="st21" d="M0,42l1,1L0,42z"/>
<path class="st4" d="M18,42l1,1L18,42z"/>
<path class="st18" d="M81,42l1,1L81,42z"/>
<path class="st14" d="M99,42l1,1L99,42z"/>
<path class="st9" d="M99,43l1,1L99,43z"/>
<path class="st8" d="M19,44l1,1L19,44z"/>
<path class="st6" d="M80,44l1,1L80,44z"/>
<path class="st20" d="M19,45l1,1L19,45z"/>
<path class="st15" d="M79,47l1,1L79,47z"/>
<path class="st1" d="M20.3,48.7c-0.1,0.1-0.1,1.1,0.3,0.7C20.7,49.3,20.8,48.2,20.3,48.7z"/>
<path class="st2" d="M79.3,48.7c-0.1,0.1-0.1,1.1,0.3,0.7C79.7,49.3,79.8,48.2,79.3,48.7z"/>
<path class="st1" d="M44.7,49.3c-0.4,0.4,0.6,0.4,0.7,0.3C45.8,49.2,44.7,49.3,44.7,49.3z"/>
<path class="st2" d="M46,49c2.1,0.9,3.7,1,6,1C49.9,49.1,48.3,49,46,49z"/>
<path class="st15" d="M52,49c1.2,0.7,1.5,0.7,3,1C53.8,49.3,53.5,49.3,52,49z"/>
<path class="st32" d="M0,50l1,1L0,50z"/>
<path class="st2" d="M20.3,50.7c-0.1,0.1-0.1,1.1,0.3,0.7C20.7,51.3,20.8,50.2,20.3,50.7z"/>
<path class="st8" d="M40,50l1,1L40,50z"/>
<path class="st2" d="M41,50l1,1L41,50z"/>
<path class="st5" d="M42,50.5C31.5,53,24.4,62.2,21.1,72c-1.7,5-1.9,12,3,15.2c7.7,5.1,16.8-8.1,24.9-7.7c8.2,0.4,14.8,10.8,23,9
	c9.7-2.2,5.7-16.6,2.7-22.5C68.6,53.6,55.6,47.4,42,50.5z"/>
<path class="st16" d="M56,50l1,1L56,50z"/>
<path class="st6" d="M57,50l1,1L57,50z"/>
<path class="st10" d="M58,50l1,1L58,50z"/>
<path class="st9" d="M79.3,50.7c-0.1,0.1-0.1,1.1,0.3,0.7C79.7,51.3,79.8,50.2,79.3,50.7z"/>
<path class="st31" d="M99,50l1,1L99,50z"/>
<path class="st33" d="M0,51l1,1L0,51z"/>
<path class="st2" d="M38,51l1,1L38,51z"/>
<path class="st16" d="M59,51l1,1L59,51z"/>
<path class="st15" d="M60,51l1,1L60,51z"/>
<path class="st22" d="M99,51l1,1L99,51z"/>
<path class="st27" d="M0,52l1,1L0,52z"/>
<path class="st1" d="M20.3,52.7c-0.1,0.1-0.1,1.1,0.3,0.7C20.7,53.3,20.8,52.2,20.3,52.7z"/>
<path class="st18" d="M36,52l1,1L36,52z"/>
<path class="st4" d="M62,52l1,1L62,52z"/>
<path class="st2" d="M79.3,52.7c-0.1,0.1-0.1,1.1,0.3,0.7C79.7,53.3,79.8,52.2,79.3,52.7z"/>
<path class="st22" d="M34,53l1,1L34,53z"/>
<path class="st3" d="M64,53l1,1L64,53z"/>
<path class="st2" d="M1,54l1,1L1,54z"/>
<path class="st10" d="M20,54l1,1L20,54z"/>
<path class="st34" d="M33,54l1,1L33,54z"/>
<path class="st21" d="M65,54l1,1L65,54z"/>
<path class="st35" d="M79,54l1,1L79,54z"/>
<path class="st1" d="M98,54l1,1L98,54z"/>
<path class="st15" d="M31,55l1,1L31,55z"/>
<path class="st9" d="M66,55l1,1L66,55z"/>
<path class="st6" d="M2,56l1,1L2,56z"/>
<path class="st2" d="M19,56l1,1L19,56z"/>
<path class="st1" d="M30,56l1,1L30,56z"/>
<path class="st9" d="M80,56l1,1L80,56z"/>
<path class="st8" d="M97,56l1,1L97,56z"/>
<path class="st4" d="M29,57l1,1L29,57z"/>
<path class="st15" d="M80,57l1,1L80,57z"/>
<path class="st20" d="M96,57l1,1L96,57z"/>
<path class="st2" d="M18,58l1,1L18,58z"/>
<path class="st1" d="M28,58l1,1L28,58z"/>
<path class="st9" d="M81,58l1,1L81,58z"/>
<path class="st3" d="M4,59l1,1L4,59z"/>
<path class="st8" d="M27,59l1,1L27,59z"/>
<path class="st18" d="M71,60l1,1L71,60z"/>
<path class="st3" d="M82,60l1,1L82,60z"/>
<path class="st16" d="M93,60l1,1L93,60z"/>
<path class="st6" d="M7,61l1,1L7,61z"/>
<path class="st31" d="M15,61l1,1L15,61z"/>
<path class="st15" d="M72,61l1,1L72,61z"/>
<path class="st10" d="M83,61l1,1L83,61z"/>
<path class="st1" d="M92,61l1,1L92,61 M9,62l1,1L9,62z"/>
<path class="st2" d="M10,62c1.5,0.7,2.3,0.8,4,1C12.5,62.3,11.7,62.2,10,62z"/>
<path class="st7" d="M14,62l1,1L14,62z"/>
<path class="st25" d="M25,62l1,1L25,62z"/>
<path class="st17" d="M85,62l1,1L85,62z"/>
<path class="st2" d="M86,62c1.5,0.7,2.3,0.8,4,1C88.5,62.3,87.7,62.2,86,62z"/>
<path class="st8" d="M90,62l1,1L90,62z"/>
<path class="st20" d="M73,63l1,1L73,63z"/>
<path class="st18" d="M24,64l1,1L24,64z"/>
<path class="st3" d="M74,64l1,1L74,64z"/>
<path class="st7" d="M23,65l1,1L23,65z"/>
<path class="st16" d="M74,65l1,1L74,65 M23,66l1,1L23,66z"/>
<path class="st27" d="M75,66l1,1L75,66z"/>
<path class="st3" d="M22,67l1,1L22,67z"/>
<path class="st21" d="M75,67l1,1L75,67z"/>
<path class="st32" d="M22,68l1,1L22,68z"/>
<path class="st3" d="M21,69l1,1L21,69z"/>
<path class="st22" d="M76,69l1,1L76,69z"/>
<path class="st20" d="M21,70l1,1L21,70z"/>
<path class="st7" d="M77,71l1,1L77,71z"/>
<path class="st1" d="M20,72l1,1L20,72z"/>
<path class="st22" d="M77,72l1,1L77,72z"/>
<path class="st31" d="M20,73l1,1L20,73z"/>
<path class="st16" d="M77,73l1,1L77,73z"/>
<path class="st17" d="M19,75l1,1L19,75z"/>
<path class="st4" d="M78.3,75.7c-0.1,0.1-0.1,1.1,0.3,0.7C78.7,76.3,78.8,75.2,78.3,75.7z"/>
<path class="st18" d="M19,76v5C19.8,79,19.8,78,19,76z"/>
<path class="st2" d="M78,77v5C78.8,80,78.8,79,78,77 M46,79c1.8,0.8,3,0.9,5,1C49.2,79.2,48,79.1,46,79z"/>
<path class="st31" d="M43,80l1,1L43,80z"/>
<path class="st8" d="M44,80l1,1L44,80z"/>
<path class="st3" d="M52,80l1,1L52,80z"/>
<path class="st2" d="M53,80l1,1L53,80z"/>
<path class="st28" d="M19,81l1,1L19,81z"/>
<path class="st36" d="M41,81l1,1L41,81z"/>
<path class="st35" d="M55,81l1,1L55,81z"/>
<path class="st9" d="M56,81l1,1L56,81 M39,82l1,1L39,82z"/>
<path class="st8" d="M57,82l1,1L57,82z"/>
<path class="st15" d="M78,82l1,1L78,82z"/>
<path class="st18" d="M20,83l1,1L20,83z"/>
<path class="st22" d="M38,83l1,1L38,83z"/>
<path class="st20" d="M59,83l1,1L59,83z"/>
<path class="st7" d="M20,84l1,1L20,84z"/>
<path class="st31" d="M36,84l1,1L36,84z"/>
<path class="st8" d="M60,84l1,1L60,84z"/>
<path class="st18" d="M77,84l1,1L77,84z"/>
<path class="st14" d="M21,85l1,1L21,85z"/>
<path class="st1" d="M35,85l1,1L35,85z"/>
<path class="st20" d="M62,85l1,1L62,85z"/>
<path class="st16" d="M22,86l1,1L22,86z"/>
<path class="st26" d="M33,86l1,1L33,86z"/>
<path class="st8" d="M63,86l1,1L63,86z"/>
<path class="st3" d="M76,86l1,1L76,86z"/>
<path class="st18" d="M23,87l1,1L23,87z"/>
<path class="st16" d="M31,87l1,1L31,87z"/>
<path class="st3" d="M32,87l1,1L32,87z"/>
<path class="st6" d="M65,87l1,1L65,87z"/>
<path class="st30" d="M75,87l1,1L75,87z"/>
<path class="st17" d="M24,88l1,1L24,88z"/>
<path class="st13" d="M25,88l1,1L25,88z"/>
<path class="st2" d="M29,88l1,1L29,88z"/>
<path class="st3" d="M30,88l1,1L30,88z"/>
<path class="st18" d="M67,88l1,1L67,88z"/>
<path class="st14" d="M73,88l1,1L73,88z"/>
<path class="st1" d="M69,89c1.2,0.7,1.5,0.7,3,1C70.8,89.3,70.5,89.3,69,89z"/>
</svg>
