<?xml version="1.0" encoding="utf-8"?>
<!-- Generator: Adobe Illustrator 27.9.0, SVG Export Plug-In . SVG Version: 6.00 Build 0)  -->
<svg version="1.1" id="Capa_1" xmlns="http://www.w3.org/2000/svg" xmlns:xlink="http://www.w3.org/1999/xlink" x="0px" y="0px"
	 viewBox="0 0 101 100" style="enable-background:new 0 0 101 100;" xml:space="preserve">
<style type="text/css">
	.st0{fill:#18A2B8;}
</style>
<path class="st0" d="M40,48c-15.3,4.5-21.9,22.3-22,37h66c-0.6-14.5-6.7-32.5-22-37c2.6-3,5-6.1,6.2-10c0.8-2.6,0.9-5.4,0.6-8
	C66.4,9.8,35.1,9.4,33.1,30c-0.3,2.6-0.2,5.5,0.5,8C34.8,41.9,37.3,45,40,48z"/>
<path class="st0" d="M15,49C4.7,52.5,2.2,63.3,1,73c3.5,0,9.4,1.1,12.5-1c3-2.1,3.7-7.8,5.3-11c2.9-5.7,7-10.4,12.2-14
	c-1.3-7.3-4.4-12.4-3-20c-3.2,0-6.9-0.4-10,0.7C8.1,31.6,10.9,42.1,15,49z"/>
<path class="st0" d="M74,27c0.4,6.8-0.1,12.2-4,18c7.4,9.1,14.9,15.8,17,28h14c-1.3-9.7-4-20.1-14-24c3.6-6.9,6.8-17.4-3-21.3
	C80.9,26.5,77.2,27,74,27z"/>
</svg>
