<?xml version="1.0" encoding="utf-8"?>
<!-- Generator: Adobe Illustrator 27.9.0, SVG Export Plug-In . SVG Version: 6.00 Build 0)  -->
<svg version="1.1" id="Capa_1" xmlns="http://www.w3.org/2000/svg" xmlns:xlink="http://www.w3.org/1999/xlink" x="0px" y="0px"
	 viewBox="0 0 90 90" style="enable-background:new 0 0 90 90;" xml:space="preserve">
<style type="text/css">
	.st0{display:none;fill:#FFFFFF;}
	.st1{fill:#18A2B8;}
	.st2{fill:#FFFFFF;}
</style>
<path class="st0" d="M0,0v18C5.6,10,9.8,6,20,6l1-6H0z"/>
<path class="st1" d="M20.3,6c-3.3,0-6.8-0.2-9.9,1c-9.2,3.6-10,12.4-10,21v27c0,7.9-2,19.1,2.7,26c4.6,6.8,11.8,7,19.2,7h26.9
	c-1.1-9.2,2.4-15.6,9.9-21c-1-4.4-4-8.3-3.8-13c0.2-7.8,7.7-15.9,15.8-15.7c3.8,0.1,7.5,2.3,10.9,3.7c0-11.3,3.8-30.4-9.9-35.1
	C68.9,5.8,65.4,6,62.1,6c-0.5-6.9-6.4-6.9-7,0H27.3C26.8-0.9,20.9-0.9,20.3,6z"/>
<path class="st0" d="M26,0l1,6h28l1-6H26 M61,0l1,6c3,0,6.1-0.1,9,0.9C85.5,11.8,82,30.1,82,42c-10.3-5.8-25.1-4.3-26.8,10
	c-0.7,5.7,2,9.9,3.8,15c-8.4,4-11.6,12.2-10,21C34.3,88,7,93.8,1,76c-1.8,4.2-1,9.5-1,14h56c-1.7-2.1-3.9-4.2-4.2-7
	c-1-7.6,8-14.1,14.2-16c-2.3-2.5-5.2-4.9-6.7-8c-6.9-14.2,16-24.7,23.1-10c0.9,1.8,1.4,4,1.3,6c-0.2,2.2-1.1,4.2-2.3,6
	c-1.7,2.4-3.7,3.8-6.3,5c5.8,3.3,10.8,5.8,14,12c2.8-6.7,1-16.8,1-24V0H61 M21,7c0,2.3-1.1,9.4,2.2,10.1C27,17.8,26,9,26,7H21 M56,7
	c0,2-1,10.8,2.8,10.1C62.1,16.4,61,9.3,61,7H56 M19.7,35c-1.8,1.5-0.1,3.2,1.5,3.7c2.9,0.8,10.9,1.3,13-1.2c1.5-1.9-0.7-3-2.3-3.3
	C29,33.6,22,33,19.7,35z"/>
<path class="st1" d="M66,66c-2.7,1.3-5.6,2.4-8,4.4c-4.9,4-10.5,14-2.9,18.4c2.3,1.3,5.3,1.2,7.9,1.2c6.6,0,16.8,1.9,22.9-0.7
	c4.3-1.8,4.7-7.3,3.5-11.3c-2-6.3-8-10.3-14.3-11c3.8-2.2,7-4.7,8.3-9c2.8-9.1-5-18.1-14.3-16.7C55.8,43.4,54.7,60.7,66,66z"/>
<path class="st0" d="M18,51c1.5,8.4,20.2,5.8,26,3C39.3,47.2,25.1,49.7,18,51 M89,86c-1.1,1.5-1.5,1.9-3,3c1.5,0.7,2.3,0.8,4,1
	C89.8,88.3,89.7,87.5,89,86z"/>
<rect x="18.9" y="33.6" class="st2" width="15.8" height="6.2"/>
<rect x="18" y="49.1" class="st2" width="26" height="7.6"/>
<rect x="20" y="6" class="st2" width="6.8" height="11.1"/>
<rect x="55" y="6" class="st2" width="7.1" height="11.1"/>
<path class="st1" d="M-16.3,21.7"/>
</svg>
