<?xml version="1.0" encoding="utf-8"?>
<!-- Generator: Adobe Illustrator 27.9.0, SVG Export Plug-In . SVG Version: 6.00 Build 0)  -->
<svg version="1.1" id="Capa_1" xmlns="http://www.w3.org/2000/svg" xmlns:xlink="http://www.w3.org/1999/xlink" x="0px" y="0px"
	 viewBox="0 0 82 91" style="enable-background:new 0 0 82 91;" xml:space="preserve">
<style type="text/css">
	.st0{display:none;fill:#FFFFFF;}
	.st1{fill:#18A2B8;}
</style>
<path class="st0" d="M0,0v73c4.1-8.3,6.5-16.3,16-20c-2.3,7.1-8,12.5-9.2,20C6,78.4,8.4,82.3,14,81c-1.8-1.4-2.7-1.7-5-2
	c0-4.1,0.7-12.4,6.2-13.2c6-0.9,7.6,9.2,7.8,13.2c-2.7,0.4-3.6,0.7-5,3c8.5-1,8.1-9.8,4.3-16c-1.5-2.3-3.8-4.3-4.6-7
	c-0.9-3,0.6-6.6,3.4-7.9c3.4-1.6,5.4,1.7,7.3,3.9c2.8,3.2,7.4,8.5,11.6,9.7c5.4,1.5,11.5-7.3,14.7-10.6c1.4-1.4,3-3.4,5.3-3.1
	c10.5,1.4-0.4,13.6,2,17.9c2.4,4.4,9.6,3.2,10.2-1.9c0.5-4-4.8-9.9-6.2-14c7.8,2.6,13.6,10,15,18c2.6-6.2,1-15.3,1-22V0H45
	c9,5.1,17.5,9.4,18.8,21C65.2,33.7,53.5,57.3,38,53.6c-6.2-1.5-11.1-7.3-14.1-12.6C15.2,25.9,17.9,4,38,1c-4-1.7-8.7-1-13-1H0z"/>
<path class="st1" d="M38.1,1.4C19.5,4.6,15.3,23,22,38.2c3.9,8.8,11.4,17.1,22,15.5c6-0.9,10.6-5.8,13.8-10.6C67.3,29,66.1,7,47,1.9
	C44,1.1,41.1,0.9,38.1,1.4 M18.2,81.3c1.7-1.8,2.5-2.3,5-2.9c-0.1-4.2-1.3-14.6-7.8-13.7c-5.9,0.9-6.1,9.3-6.1,13.7l5,1
	c-5.1,1.9-7.5-1.8-6.8-6.9c1-7.2,7-12.4,8.8-19.6c-12.3,2.9-23.7,27-9.9,34.9c5.9,3.4,13.3,2.4,19.8,2.4c14.3,0,30.7,2.2,44.7-0.5
	c19.5-3.7,10.5-33.7-5-36.8c1.1,4,6.1,10,5.6,13.7c-0.6,5.1-7.6,5.3-9.5,1c-1.7-3.9,8.5-16-2.1-17.1C52.1,49.6,48.4,66.1,40,63.6
	c-4.3-1.3-8.6-6.5-11.6-9.6c-2.2-2.4-4.6-5-8.1-3c-2.9,1.7-3.7,5.8-2.6,8.8C20.1,66.4,32.1,78.5,18.2,81.3 M64.5,63.7
	c-2.8,2.2,0.9,6.7,3.8,4.8C71.5,66.3,67.6,61.3,64.5,63.7z"/>
<path class="st0" d="M0,80v11h11C6,87.6,3.1,85.3,0,80 M81,82c-2.1,4.5-5.1,7-10,8c3.4,1.4,7.3,1,11,1C82,87.9,82.2,84.9,81,82z"/>
</svg>
