<?xml version="1.0" encoding="utf-8"?>
<!-- Generator: Adobe Illustrator 27.9.0, SVG Export Plug-In . SVG Version: 6.00 Build 0)  -->
<svg version="1.1" id="Capa_1" xmlns="http://www.w3.org/2000/svg" xmlns:xlink="http://www.w3.org/1999/xlink" x="0px" y="0px"
	 viewBox="0 0 101 100" style="enable-background:new 0 0 101 100;" xml:space="preserve">
<style type="text/css">
	.st0{fill:#18A2B8;}
</style>
<path class="st0" d="M1,12c3.4,0,8.6-1,11.6,1c3.5,2.3,3.9,9.2,4.6,13c2.3,11.4,4.9,22.7,7.7,34c1,4.2,1.1,14.3,5.4,16.4
	C33.7,78,39.3,77,43,77h30c3.1,0,12.6,0.2,9-5.7c-2-3.3-7.7-2.3-11-2.3H48c-2.9,0-7.1,0.7-9.6-1c-2.3-1.6-2.3-4.5-2.4-7h33
	c3.7,0,10.3,1.2,13.5-1c3.1-2.2,4.2-8.6,5.5-12c4.5-11.3,10.2-23.1,13-35c-8-2.4-17.7-1-26-1H24c-1.2-7.7-6.3-7-13-7
	C8.5,5,4.7,4.4,2.6,6C0.8,7.4,1.1,10,1,12z"/>
<path class="st0" d="M37.2,81.7c-7.3,3.4-1.3,16.1,6.5,11.8C51.3,89.4,44.8,78.3,37.2,81.7z"/>
<path class="st0" d="M71.1,82c-7,4.1-0.5,15.4,6.7,11.6C86.2,89.4,79.2,77.3,71.1,82z"/>
</svg>
